<svg width="1200" height="850" viewBox="0 0 1200 850" fill="none" xmlns="http://www.w3.org/2000/svg">
<path d="M0 66C0 52.1929 11.1929 41 25 41H1175C1188.81 41 1200 52.1929 1200 66V825C1200 838.807 1188.81 850 1175 850H25C11.1929 850 0 838.807 0 825V66Z" fill="#F9F9F9"/>
<path d="M239.039 7.38486C242.42 5.6302 244.111 4.75287 245.841 4.01443C250.884 1.86177 256.247 0.553266 261.714 0.141314C263.59 0 265.495 0 269.304 0H935.581C939.519 0 941.488 0 943.425 0.150723C949.072 0.590154 954.603 1.98576 959.782 4.27796C961.558 5.06418 963.291 5.99836 966.758 7.86673C1009.49 30.8979 1030.86 42.4135 1037.33 50.7447C1057.28 76.4255 1047.8 114.02 1018.05 127.16C1008.4 131.422 984.124 131.422 935.581 131.422H269.304C219.302 131.422 194.301 131.422 184.602 127.11C154.682 113.807 145.412 75.8138 165.842 50.2253C172.465 41.9302 194.656 30.4151 239.039 7.38486Z" fill="#F9F9F9"/>
<path d="M1067.11 41.5832C1030.15 41.5832 1020.67 35.2686 1004.57 28.2125L998.88 37.6665L999.832 52.0215L1065.18 53.463L1067.11 41.5832Z" fill="#F9F9F9"/>
<path d="M136.473 41.5801C173.659 41.5869 183.201 35.2741 199.412 28.2209L205.127 37.6759L204.152 52.0308L138.399 53.4603L136.473 41.5801Z" fill="#F9F9F9"/>
</svg>
